<svg width="16" height="16" viewBox="0 0 16 16" fill="none" xmlns="http://www.w3.org/2000/svg">
<rect width="16" height="16" fill="black"/>
<path d="M4.03711 3.70898H7.02539V6.13477L9.11133 4.55859C9.4043 4.33594 9.61719 4.1543 9.75 4.01367C9.88281 3.87305 9.96484 3.78906 9.99609 3.76172C10.0312 3.73047 10.0625 3.70703 10.0898 3.69141C10.1367 3.66016 10.1953 3.64453 10.2656 3.64453C10.3398 3.64453 10.3984 3.66602 10.4414 3.70898C10.4844 3.74805 10.5059 3.79297 10.5059 3.84375C10.5059 3.89062 10.5 3.93164 10.4883 3.9668C10.4766 3.99805 10.4531 4.03516 10.418 4.07812C10.3398 4.17188 10.1914 4.30273 9.97266 4.4707L8.66016 5.4668L10.8574 10.8398C10.9004 10.9414 10.9414 11.0312 10.9805 11.1094L11.0742 11.3203L11.1797 11.5195C11.207 11.5742 11.2305 11.627 11.25 11.6777C11.2695 11.7285 11.2773 11.7773 11.2734 11.8242C11.2695 11.8711 11.2559 11.9141 11.2324 11.9531C11.1777 12.0391 11.1113 12.082 11.0332 12.082C10.9238 12.082 10.8418 12.0508 10.7871 11.9883C10.7168 11.9023 10.6641 11.8066 10.6289 11.7012L10.5234 11.373C10.4883 11.2637 10.4414 11.1328 10.3828 10.9805L8.25586 5.77148L7.02539 6.70312V12H4.03711V3.70898Z" fill="#4FC3F7"/>
</svg>
